<svg width="78" height="41" viewBox="0 0 78 41" fill="none" xmlns="http://www.w3.org/2000/svg">
<path fill-rule="evenodd" clip-rule="evenodd" d="M47.9233 11.0218C47.0413 11.1197 46.158 11.2057 45.2783 11.3168C42.9524 11.609 40.6507 12.0315 38.374 12.5893C37.8313 12.7218 37.3024 12.8976 36.801 13.1479C36.6619 13.2171 36.5263 13.2975 36.4006 13.3887C36.1579 13.5664 35.952 13.7774 36.0288 14.1132C36.1061 14.4488 36.3805 14.5481 36.6789 14.6019C37.3475 14.7226 38.0144 14.6266 38.6791 14.5642C41.7772 14.2733 44.8528 13.7951 47.9425 13.4357C49.5589 13.2478 51.1742 13.0402 52.8033 12.971C53.7559 12.9311 54.3309 12.1416 54.1502 11.1723C54.0294 10.5248 53.719 9.9557 53.356 9.4163C52.5166 8.16849 51.4624 7.10923 50.3773 6.08031C49.3974 5.15217 48.3623 4.28693 47.3157 3.43438C45.9956 2.35849 44.4639 1.61066 43.0498 0.680982C42.9581 0.62082 42.8497 0.58174 42.7439 0.547632C42.4698 0.458845 42.2109 0.486613 41.9984 0.69538C41.7741 0.915288 41.7556 1.18645 41.8456 1.47114C41.9247 1.72002 42.0849 1.92313 42.2424 2.12538C43.7694 4.08948 45.32 6.03197 47.3284 7.54528C47.3881 7.59053 47.4615 7.63046 47.4803 7.73451C47.3749 7.79638 47.2718 7.73708 47.1722 7.71651C44.5728 7.18122 41.9804 6.6108 39.3731 6.1163C36.2474 5.52291 33.0852 5.18782 29.91 5.00562C26.501 4.80988 23.0891 4.74766 19.6789 4.96568C16.9843 5.13726 14.3475 5.59935 11.8001 6.53486C7.28036 8.19472 4.16135 11.305 2.24413 15.6735C1.28226 17.8649 0.773457 20.1579 0.733157 22.5518C0.712922 23.7436 0.643127 24.9372 0.848568 26.1215C0.87532 26.275 0.909618 26.4283 0.957462 26.576C1.08076 26.9596 1.32136 27.168 1.63741 27.1667C2.00405 27.1649 2.20726 26.9394 2.32233 26.6247C2.51765 26.0908 2.67439 25.544 2.80163 24.9899C3.10637 23.6634 3.21269 22.3018 3.52737 20.9772C3.91236 19.3571 4.41858 17.7797 5.11877 16.2653C6.59596 13.0728 9.04565 10.9627 12.3317 9.79373C14.5872 8.99156 16.9368 8.63882 19.3097 8.44925C24.9391 7.99863 30.5378 8.29739 36.1197 9.12852C39.9469 9.69894 43.7759 10.2553 47.5922 10.8946C47.701 10.913 47.8091 10.9323 47.918 10.9503C47.9197 10.9745 47.9214 10.9982 47.9233 11.0218Z" fill="#696969"/>
<path fill-rule="evenodd" clip-rule="evenodd" d="M30.0767 29.9782C30.9587 29.8803 31.842 29.7943 32.7217 29.6832C35.0476 29.391 37.3493 28.9685 39.626 28.4107C40.1687 28.2782 40.6976 28.1024 41.199 27.8521C41.3381 27.7829 41.4737 27.7025 41.5994 27.6113C41.8421 27.4336 42.048 27.2226 41.9712 26.8868C41.8939 26.5512 41.6195 26.4519 41.3211 26.3981C40.6525 26.2774 39.9856 26.3734 39.3209 26.4358C36.2228 26.7267 33.1472 27.2049 30.0575 27.5643C28.4411 27.7522 26.8258 27.9598 25.1967 28.029C24.2441 28.0689 23.6691 28.8584 23.8498 29.8277C23.9706 30.4752 24.281 31.0443 24.644 31.5837C25.4834 32.8315 26.5376 33.8908 27.6227 34.9197C28.6026 35.8478 29.6377 36.7131 30.6843 37.5656C32.0044 38.6415 33.5361 39.3893 34.9502 40.319C35.0419 40.3792 35.1503 40.4183 35.2561 40.4524C35.5302 40.5412 35.7891 40.5134 36.0016 40.3046C36.2259 40.0847 36.2444 39.8136 36.1544 39.5289C36.0753 39.28 35.9151 39.0769 35.7576 38.8746C34.2306 36.9105 32.68 34.968 30.6716 33.4547C30.6119 33.4095 30.5385 33.3695 30.5197 33.2655C30.6251 33.2036 30.7282 33.2629 30.8278 33.2835C33.4272 33.8188 36.0196 34.3892 38.6269 34.8837C41.7526 35.4771 44.9148 35.8122 48.09 35.9944C51.499 36.1901 54.9109 36.2523 58.3211 36.0343C61.0157 35.8627 63.6525 35.4006 66.1999 34.4651C70.7196 32.8053 73.8386 29.695 75.7559 25.3265C76.7177 23.1351 77.2265 20.8421 77.2668 18.4482C77.2871 17.2564 77.3569 16.0628 77.1514 14.8785C77.1247 14.725 77.0904 14.5717 77.0425 14.424C76.9192 14.0404 76.6786 13.832 76.3626 13.8333C75.996 13.8351 75.7927 14.0606 75.6777 14.3753C75.4823 14.9092 75.3256 15.456 75.1984 16.0101C74.8936 17.3366 74.7873 18.6982 74.4726 20.0228C74.0876 21.6429 73.5814 23.2203 72.8812 24.7347C71.404 27.9272 68.9544 30.0373 65.6683 31.2063C63.4128 32.0084 61.0632 32.3612 58.6903 32.5508C53.0609 33.0014 47.4622 32.7026 41.8803 31.8715C38.0531 31.3011 34.2241 30.7447 30.4078 30.1054C30.299 30.087 30.1909 30.0677 30.082 30.0497C30.0803 30.0255 30.0786 30.0018 30.0767 29.9782Z" fill="#696969"/>
</svg>
