<svg width="18" height="20" viewBox="0 0 18 20" fill="none" xmlns="http://www.w3.org/2000/svg">
<path opacity="0.4" fill-rule="evenodd" clip-rule="evenodd" d="M14.6687 7.80398L13.8647 8.87282C13.7453 9.03158 13.5201 9.06361 13.3612 8.94457L7.14424 4.28735C6.98536 4.16834 6.95272 3.94318 7.0714 3.78404L7.87672 2.704C8.70472 1.588 9.98872 1 11.2847 1C12.1727 1 13.0607 1.276 13.8287 1.852C14.7287 2.536 15.3167 3.532 15.4847 4.648C15.6407 5.776 15.3527 6.892 14.6687 7.80398Z" fill="white"/>
<path d="M9.49133 2.31916L1.9655 10.285C1.68133 10.5875 1.40633 11.1833 1.35133 11.5958L1.01216 14.5658C0.892997 15.6383 1.663 16.3717 2.72633 16.1883L5.678 15.6842C6.0905 15.6108 6.668 15.3083 6.95216 14.9967L14.478 7.03083C15.7797 5.65583 16.3663 4.08833 14.3405 2.17249C12.3238 0.274994 10.793 0.94416 9.49133 2.31916Z" stroke="white" stroke-width="1.5" stroke-miterlimit="10" stroke-linecap="round" stroke-linejoin="round"/>
<path d="M8.23535 3.64844C8.62952 6.17844 10.6829 8.1126 13.2312 8.36927" stroke="white" stroke-width="1.5" stroke-miterlimit="10" stroke-linecap="round" stroke-linejoin="round"/>
<path opacity="0.4" fill-rule="evenodd" clip-rule="evenodd" d="M16.8302 17.2222H9.17783C8.68103 17.2222 8.27783 17.6254 8.27783 18.1222C8.27783 18.619 8.68103 19.0222 9.17783 19.0222H16.8302C17.327 19.0222 17.7302 18.619 17.7302 18.1222C17.7302 17.6254 17.327 17.2222 16.8302 17.2222Z" fill="white"/>
</svg>
