<svg xmlns="http://www.w3.org/2000/svg" viewBox="0 0 500 500"><defs><style>.cls-1{fill:#cad2f9;}.cls-2{fill:#eef1ff;}.cls-3{fill:#edf0fc;}.cls-4{fill:#e2e6ff;}.cls-5{fill:#eb725f;}.cls-6{fill:#92a6f4;}.cls-7{fill:#d0dbf7;}.cls-15,.cls-8{fill:#f5f9ff;}.cls-9{fill:#f9ab43;}.cls-10{fill:#6e7fdd;}.cls-11{fill:#ffcf74;}.cls-12{fill:#0046a0;opacity:0.1;}.cls-13{fill:#f8faff;}.cls-14{fill:#fff;}.cls-15{opacity:0.3;}</style></defs><g id="BACKGROUND"><polygon class="cls-1" points="388.3 114.28 382.23 114.28 382.23 108.21 377.93 108.21 377.93 114.28 371.86 114.28 371.86 118.58 377.93 118.58 377.93 124.64 382.23 124.64 382.23 118.58 388.3 118.58 388.3 114.28"/><polygon class="cls-1" points="351.73 91.4 347.33 91.4 347.33 87 344.21 87 344.21 91.4 339.81 91.4 339.81 94.52 344.21 94.52 344.21 98.92 347.33 98.92 347.33 94.52 351.73 94.52 351.73 91.4"/><polygon class="cls-1" points="161.69 162.73 157.29 162.73 157.29 158.33 154.17 158.33 154.17 162.73 149.78 162.73 149.78 165.85 154.17 165.85 154.17 170.25 157.29 170.25 157.29 165.85 161.69 165.85 161.69 162.73"/><polygon class="cls-1" points="42.83 261.99 36.77 261.99 36.77 255.92 32.46 255.92 32.46 261.99 26.4 261.99 26.4 266.29 32.46 266.29 32.46 272.36 36.77 272.36 36.77 266.29 42.83 266.29 42.83 261.99"/><polygon class="cls-1" points="456.82 156.77 452.43 156.77 452.43 152.37 449.3 152.37 449.3 156.77 444.91 156.77 444.91 159.89 449.3 159.89 449.3 164.29 452.43 164.29 452.43 159.89 456.82 159.89 456.82 156.77"/><circle class="cls-2" cx="338.26" cy="124.47" r="3.79"/><circle class="cls-2" cx="402.23" cy="87" r="2"/><path class="cls-2" d="M232.3,186.72a2,2,0,1,1-2-2A2,2,0,0,1,232.3,186.72Z"/><path class="cls-2" d="M433.28,120.36a3.79,3.79,0,1,1-3.79-3.79A3.79,3.79,0,0,1,433.28,120.36Z"/><path class="cls-2" d="M201.7,153.12a2,2,0,1,1-2-2A2,2,0,0,1,201.7,153.12Z"/><path class="cls-2" d="M144.64,89a2,2,0,1,1-2-2A2,2,0,0,1,144.64,89Z"/><path class="cls-2" d="M58.69,206.88a3.79,3.79,0,1,1-3.79-3.79A3.79,3.79,0,0,1,58.69,206.88Z"/><circle class="cls-2" cx="158.07" cy="239.97" r="3.79"/><circle class="cls-2" cx="61.04" cy="108.79" r="3.79"/><path class="cls-2" d="M22.19,293.88a2,2,0,1,1-2-2A2,2,0,0,1,22.19,293.88Z"/><path class="cls-2" d="M462.43,363.33a2,2,0,1,1-2-2A2,2,0,0,1,462.43,363.33Z"/></g><g id="OBJECTS"><ellipse class="cls-3" cx="242.2" cy="405.07" rx="224.59" ry="29.93"/><path class="cls-4" d="M439.88,234.49c12.72,3.68,30.95-5,25.9-14.79-4.22-8.22-19.35,6.3-25,12.13q1.88-5.43,3.46-11c10.87-7.47,15.85-26.8,5.13-29.24-9.2-2.08-7.54,19.79-6.68,27.44-.72,2.54-1.49,5.07-2.29,7.58.95-11.31-5.05-23.67-13.55-20.4-9.74,3.75,7.88,24.45,11,28l-.36,1q-2.16,5.9-4.67,11.67c1.74-11.05-3.09-23.46-11.71-21-9.86,2.78,5,24.26,8.19,28.62q-2.13,4.37-4.48,8.6c-1.18,2.12-2.41,4.2-3.69,6.26,3.91-11.28.21-26.24-9.26-24.36-10.24,2,3.58,25.43,6,29.42a134,134,0,0,1-9.66,12.7c5-10.93,2.65-26.45-7-25.37-10.11,1.13.85,24.44,3.35,29.48a105.42,105.42,0,0,1-12.71,11.47c7.07-9.68,7.86-25.23-1.8-26.14-10.06-1-4.24,23.75-2.77,29.43a91,91,0,0,1-11.47,6.58q-2.13,1-4.3,1.91c-1.17.48-.66,2.42.54,1.93a92.8,92.8,0,0,0,16.76-9.06c9.62,9.23,30.2,9.75,30.07-1.42-.11-9.16-19.83-3.08-27.59-.33A101.61,101.61,0,0,0,402.69,296c1.26-1.22,2.48-2.49,3.68-3.77,11.32,7,31.47,3.29,29.05-7.59-2-8.85-19.68.84-26.85,5.19a134.6,134.6,0,0,0,11.3-14.75c11.9,5.79,31.32.4,28-10.15-2.67-8.59-19.28,2.32-26.17,7.31q1.26-2,2.46-4c2.54-4.27,4.88-8.66,7.06-13.13,12.31,5,31.52-1.93,27.37-12.26-3.52-8.74-20.53,5-26.35,10.11q3.11-6.58,5.73-13.39C438.65,237.87,439.28,236.19,439.88,234.49Z"/><path class="cls-4" d="M60.67,323.46c-.69-13.22-14.83-27.62-22.46-19.63-6.38,6.68,12.29,16.22,19.64,19.62-3.83,0-7.66.11-11.49.32-10.62-7.82-30.52-6.2-29.3,4.73,1,9.38,21.16.64,28.11-2.67,2.63-.16,5.27-.26,7.91-.32-11,2.8-20.71,12.52-14.83,19.48,6.72,8,20.51-15.46,22.82-19.53h1.07q6.28.12,12.56.6c-11,2-21.16,10.6-16,17.95,5.86,8.4,21.27-12.71,24.36-17.12,3.21.39,6.42.86,9.6,1.42,2.38.42,4.76.9,7.12,1.43-11.94,0-24.86,8.4-20,16.74,5.27,9,22.86-11.72,25.83-15.33a134.43,134.43,0,0,1,15.17,5c-12-1.17-25.86,6.16-21.66,15,4.37,9.18,22.8-8.81,26.75-12.82a106.6,106.6,0,0,1,15,8.25c-11.47-3.51-26.41.83-24.12,10.26,2.39,9.82,23.83-3.77,28.72-7a88.32,88.32,0,0,1,10,8.68q1.67,1.67,3.22,3.43c.84.95,2.5-.17,1.64-1.14a92.6,92.6,0,0,0-14.05-12.87c5.57-12.11-.67-31.73-11.18-27.94-8.62,3.1,3.58,19.74,8.72,26.17a103.51,103.51,0,0,0-12.83-7.63c-1.57-.79-3.17-1.52-4.77-2.24,2.9-13-7.2-30.81-16.68-25-7.73,4.76,7.23,18.32,13.69,23.68a135,135,0,0,0-17.64-5.85c1.57-13.14-9.88-29.72-18.77-23.16-7.24,5.34,8.51,17.46,15.48,22.33-1.52-.36-3-.7-4.58-1-4.87-1-9.78-1.78-14.71-2.37.7-13.28-12.16-29.15-20.55-21.85-7.11,6.19,11.5,17.75,18.18,21.58q-7.25-.77-14.53-1C64.27,323.51,62.47,323.48,60.67,323.46Z"/><path class="cls-5" d="M445.79,280.51a88.4,88.4,0,0,1,9.41-4.9c15.27,2.36,27.8-6.75,27.8-6.75-17.31-5.24-25.49,2.34-28,5.4-1,.47-2,.94-3,1.42a90.46,90.46,0,0,0-13.63,8.21c9.24-10.12,10-23.33,10-23.33-16.52,11-14.13,23.31-13.4,25.91a88.15,88.15,0,0,0-10.37,9.8c6.1-13.45,1.56-27.33,1.56-27.33-11.18,16.12-4.71,26.64-3,28.95a87.32,87.32,0,0,0-6.62,8.78c-.6.92-1.17,1.87-1.74,2.81,2.73-14.28-4.64-26.56-4.64-26.56-7.16,17.79.94,26.61,3.36,28.74a95.65,95.65,0,0,0-6.42,13.91c1.82-13.5-4.94-24.77-4.94-24.77-7.3,18.15,1.29,27,3.51,28.88a110.78,110.78,0,0,0-2.95,10.89c-.18.81,1.08,1.16,1.25.34a105.76,105.76,0,0,1,5.19-17c15.69-.61,26.29-12.34,26.29-12.34-14.6-1.26-21.6,4.47-24.68,8.55a93.29,93.29,0,0,1,6.06-11.33c15.36,3,28.35-5.88,28.35-5.88-14.41-4.82-22.63-.4-26.41,2.91a87.72,87.72,0,0,1,7.92-9.95c14.84,4.8,28.75-2.39,28.75-2.39-12.44-5.94-20.75-3.71-25.29-1.15.9-.86,1.81-1.7,2.75-2.52a90,90,0,0,1,8.34-6.45c13.73,7.55,28.82,3,28.82,3C459.23,278.44,450.77,278.9,445.79,280.51Z"/><path class="cls-5" d="M56.12,373.32a89.15,89.15,0,0,1-10.59-.6c-11.92-9.83-27.34-8.4-27.34-8.4,12.2,13.35,23.1,11,26.79,9.64,1.11.13,2.23.24,3.33.33a90.89,90.89,0,0,0,15.91-.09c-13.12,4-20.56,14.93-20.56,14.93,19.82-1,24.07-12.82,24.76-15.42a89.63,89.63,0,0,0,13.93-3.13C70.23,379,67,393.27,67,393.27c17.85-8.14,17.66-20.5,17.36-23.36a84.51,84.51,0,0,0,10.17-4.17c1-.48,2-1,2.93-1.52-9.64,10.88-9.58,25.2-9.58,25.2,15.24-11.63,12.79-23.36,11.8-26.43a96.34,96.34,0,0,0,12.63-8.66c-8.47,10.67-8.42,23.81-8.42,23.81,15.55-11.87,12.69-23.85,11.74-26.62a111.23,111.23,0,0,0,8.11-7.85c.56-.61-.33-1.55-.91-.94a105.94,105.94,0,0,1-13.13,11.95c-13.81-7.49-28.91-2.83-28.91-2.83,11.91,8.55,20.85,7.2,25.59,5.27a95.33,95.33,0,0,1-11,6.64C83.75,353.32,68,354.33,68,354.33c9.93,11.5,19.25,11.9,24.19,11a86.79,86.79,0,0,1-11.89,4.5C70,358.11,54.41,357.19,54.41,357.19,62.06,368.65,70.34,371,75.56,371.1c-1.21.28-2.43.53-3.66.76a87.35,87.35,0,0,1-10.46,1.28c-7.94-13.51-23.23-17.33-23.23-17.33C43.51,368.24,51,372.16,56.12,373.32Z"/><rect class="cls-6" x="249.13" y="170.9" width="163.92" height="238.33" rx="4.4"/><rect class="cls-7" x="256.84" y="183.73" width="148.51" height="203.85"/><rect class="cls-8" x="273.89" y="198.96" width="114.4" height="172.38"/><rect class="cls-4" x="273.89" y="198.96" width="114.4" height="10.53"/><path class="cls-5" d="M283.08,204.47a2.41,2.41,0,1,1-2.41-2.41A2.41,2.41,0,0,1,283.08,204.47Z"/><path class="cls-9" d="M291.19,204.47a2.41,2.41,0,1,1-2.41-2.41A2.41,2.41,0,0,1,291.19,204.47Z"/><path class="cls-10" d="M299.3,204.47a2.41,2.41,0,1,1-2.41-2.41A2.41,2.41,0,0,1,299.3,204.47Z"/><polygon class="cls-4" points="363.95 266.89 354.27 257.21 331.09 280.39 307.92 257.21 298.24 266.89 321.42 290.06 298.24 313.24 307.92 322.92 331.09 299.74 354.27 322.92 363.95 313.24 340.77 290.06 363.95 266.89"/><rect class="cls-10" x="86.01" y="257.21" width="225.8" height="148.98" rx="4.15"/><rect class="cls-7" x="92.61" y="264.14" width="212.6" height="135.13"/><path class="cls-10" d="M71.34,392.55v12A4.7,4.7,0,0,0,76,409.23H321.79a4.7,4.7,0,0,0,4.69-4.69v-12Z"/><path class="cls-6" d="M161.13,392.55v3.55a1.39,1.39,0,0,0,1.39,1.39H235.3a1.39,1.39,0,0,0,1.39-1.39v-3.55Z"/><path class="cls-9" d="M435.32,383.06a7.51,7.51,0,0,1-7,5.6H361.41a7.49,7.49,0,0,1-7-5.6L339.5,315.85a4.42,4.42,0,0,1,4.49-5.6H445.75a4.41,4.41,0,0,1,4.49,5.6Z"/><path class="cls-11" d="M409.79,318.26a8.74,8.74,0,0,0-7.67,5.41l-3.18,8.9a8.74,8.74,0,0,1-7.67,5.41H342.7a4.18,4.18,0,0,0-4.25,5.54l16.15,60.17a7.92,7.92,0,0,0,7.22,5.54h66.31a7.93,7.93,0,0,0,7.23-5.54l16.15-60.17c.82-3,2.35-8,3.42-10.95l3.18-8.9c1.06-3-.65-5.41-3.81-5.41Z"/><path class="cls-12" d="M454.3,318.26H436.4A59.77,59.77,0,0,1,439.74,338c0,34.29-28.88,62.09-64.51,62.09a66.49,66.49,0,0,1-22.66-3.95l2,7.57a7.92,7.92,0,0,0,7.22,5.54h66.31a7.93,7.93,0,0,0,7.23-5.54l16.15-60.17c.82-3,2.35-8,3.42-10.95l3.18-8.9C459.17,320.69,457.46,318.26,454.3,318.26Z"/><path class="cls-5" d="M388.3,363.33c0,3.33-1.94,6-4.33,6s-4.32-2.7-4.32-6,1.94-6,4.32-6S388.3,360,388.3,363.33Z"/><path class="cls-5" d="M417,363.33c0,3.33-1.94,6-4.33,6s-4.32-2.7-4.32-6,1.94-6,4.32-6S417,360,417,363.33Z"/><path class="cls-5" d="M388.44,380.19a14.21,14.21,0,0,1,5.59-3.63c5.19-1.88,10.21.08,14.16,3.63,1.06.95,2.62-.61,1.56-1.56-4.38-3.94-10.06-6.25-15.89-4.35a16.64,16.64,0,0,0-7,4.35c-1,1.05.6,2.62,1.57,1.56Z"/><rect class="cls-13" x="106.78" y="309.55" width="97.92" height="72.23"/><rect class="cls-4" x="106.78" y="309.55" width="97.92" height="9.01"/><path class="cls-5" d="M114.64,314.26a2.07,2.07,0,1,1-2.06-2.06A2.06,2.06,0,0,1,114.64,314.26Z"/><path class="cls-9" d="M121.58,314.26a2.06,2.06,0,1,1-2.06-2.06A2.06,2.06,0,0,1,121.58,314.26Z"/><path class="cls-10" d="M128.52,314.26a2.06,2.06,0,1,1-2.06-2.06A2.06,2.06,0,0,1,128.52,314.26Z"/><path class="cls-7" d="M150,354.44a8.14,8.14,0,0,1,3.6-7.06l1.15-.8a13.42,13.42,0,0,0,2.29-1.75,2.45,2.45,0,0,0,.64-1.71q0-2.58-4.31-2.58a16.72,16.72,0,0,0-4.12.54,18.63,18.63,0,0,0-4,1.5v-6.83a21.8,21.8,0,0,1,9.14-1.87c3.64,0,6.53.77,8.66,2.29a7.34,7.34,0,0,1,3.19,6.33,6.08,6.08,0,0,1-1,3.66,15.34,15.34,0,0,1-3.46,3.13c-1.1.8-1.89,1.41-2.4,1.84a4.37,4.37,0,0,0-1.13,1.44,4.58,4.58,0,0,0-.38,1.95v.85H150Zm.91,10.63a4.2,4.2,0,0,1,0-5.84,4,4,0,0,1,2.95-1.15,4.09,4.09,0,0,1,3,1.17,4.06,4.06,0,0,1,0,5.82,4.09,4.09,0,0,1-3,1.17A4,4,0,0,1,150.94,365.07Z"/><rect class="cls-8" x="191.83" y="279.61" width="97.92" height="72.23"/><rect class="cls-4" x="191.83" y="279.61" width="97.92" height="9.01"/><circle class="cls-5" cx="197.63" cy="284.32" r="2.06"/><path class="cls-9" d="M206.64,284.32a2.07,2.07,0,1,1-2.06-2.06A2.07,2.07,0,0,1,206.64,284.32Z"/><circle class="cls-10" cx="211.52" cy="284.32" r="2.06"/><path class="cls-7" d="M235.09,324.5a8.16,8.16,0,0,1,3.59-7.06l1.16-.8a12.76,12.76,0,0,0,2.28-1.75,2.41,2.41,0,0,0,.65-1.71q0-2.56-4.31-2.57a17.27,17.27,0,0,0-4.13.53,19.4,19.4,0,0,0-4,1.51v-6.84a21.88,21.88,0,0,1,9.15-1.86q5.46,0,8.65,2.29a7.32,7.32,0,0,1,3.2,6.32,6.06,6.06,0,0,1-1,3.66,15.33,15.33,0,0,1-3.46,3.13c-1.1.8-1.9,1.42-2.4,1.84a4.3,4.3,0,0,0-1.13,1.45,4.55,4.55,0,0,0-.38,1.95v.84h-7.81Zm.91,10.63a3.92,3.92,0,0,1-1.18-2.91A3.88,3.88,0,0,1,236,329.3a4.3,4.3,0,0,1,5.9,0,4.07,4.07,0,0,1,0,5.81,4.07,4.07,0,0,1-3,1.18A4,4,0,0,1,236,335.13Z"/><path class="cls-4" d="M217.41,190.64l-15.5,4.21-4.25-15.63L166,187.82l14.77,54.39L228,229.38l-10.52-38.7Zm-15.88,31.28a3.09,3.09,0,0,1-1.91,1.43,3,3,0,0,1-2.36-.27,3.14,3.14,0,0,1-1.15-4.22,3.23,3.23,0,0,1,4.27-1.15,3.06,3.06,0,0,1,1.15,4.21Zm2.33-15.33a11.54,11.54,0,0,1-1.89,2.95c-.63.79-1.09,1.39-1.37,1.8a3.11,3.11,0,0,0-.53,1.27,3.36,3.36,0,0,0,.11,1.48l.16.62-5.65,1.53-.18-.67a6.1,6.1,0,0,1,1.21-5.82l.68-.8a9.82,9.82,0,0,0,1.31-1.72,1.82,1.82,0,0,0,.13-1.36q-.51-1.86-3.62-1a12.24,12.24,0,0,0-2.88,1.2,13.79,13.79,0,0,0-2.63,1.88L187.37,203a16.24,16.24,0,0,1,6.25-3.15,11,11,0,0,1,6.71-.05,5.52,5.52,0,0,1,3.55,4A4.52,4.52,0,0,1,203.86,206.59Z"/><polygon class="cls-4" points="200.68 179.89 203.82 191.47 215.31 188.35 200.68 179.89"/><path class="cls-4" d="M305.33,128.66,284.45,122l6.74-21-42.6-13.64-23.45,73.22,63.56,20.36,16.68-52.1Zm-41.4,24a4.21,4.21,0,0,1-3.25.22,4.11,4.11,0,0,1-2.51-2.07,4,4,0,0,1-.23-3.19,4,4,0,0,1,2.06-2.49,4.1,4.1,0,0,1,3.23-.2,4.19,4.19,0,0,1,2.51,2.06,4.18,4.18,0,0,1-1.81,5.67Zm14-15.81a15.8,15.8,0,0,1-4.34,2c-1.32.43-2.29.78-2.91,1a4.38,4.38,0,0,0-1.56,1.05,4.68,4.68,0,0,0-1,1.79l-.27.82-7.61-2.44.29-.9a8.37,8.37,0,0,1,5.71-5.76l1.37-.42a13.84,13.84,0,0,0,2.78-1,2.48,2.48,0,0,0,1.16-1.46c.53-1.68-.6-3-3.4-3.86A17.22,17.22,0,0,0,264,127a19,19,0,0,0-4.41.21l2.13-6.66a22.31,22.31,0,0,1,9.49,1q5.33,1.71,7.72,4.93a7.52,7.52,0,0,1,1.14,7.16A6.19,6.19,0,0,1,278,136.87Z"/><polygon class="cls-4" points="294.14 103.94 289.15 119.52 304.61 124.47 294.14 103.94"/><rect class="cls-5" x="323.63" y="143.56" width="105.86" height="72.53" rx="8.32"/><path class="cls-14" d="M400.81,204.45H352.32c-2.73,0-4.89-1.09-5.93-3s-.76-4.31.73-6.6h0l23.62-36.19a6.62,6.62,0,0,1,11.65,0L406,194.86c1.5,2.29,1.76,4.69.73,6.6S403.54,204.45,400.81,204.45Zm-49.39-6.79c-.53.81-.54,1.28-.51,1.36a2.18,2.18,0,0,0,1.41.31h48.49a2.18,2.18,0,0,0,1.42-.32,2.29,2.29,0,0,0-.52-1.35l-23.62-36.18a2.15,2.15,0,0,0-1.53-1.17,2.18,2.18,0,0,0-1.53,1.17Z"/><path class="cls-14" d="M375.08,194.64a2,2,0,0,1,1.45-3.49,2.06,2.06,0,0,1,1.47.59,2.05,2.05,0,0,1,0,2.9,2.06,2.06,0,0,1-1.47.59A2,2,0,0,1,375.08,194.64Zm-1.21-24.07h5.39l-1,17.23h-3.39Z"/><rect class="cls-5" x="54.9" y="225.6" width="87.74" height="60.11" rx="6.9"/><path class="cls-14" d="M98.77,231.65a24,24,0,1,0,24,24A24,24,0,0,0,98.77,231.65Zm0,4.53a19.39,19.39,0,0,1,12.07,4.2L83.49,267.73a19.46,19.46,0,0,1,15.28-31.55Zm0,39a19.42,19.42,0,0,1-12.08-4.21L114,243.58a19.47,19.47,0,0,1-15.27,31.56Z"/><rect class="cls-5" x="260.1" y="388.61" width="61.58" height="7.28" transform="translate(-140.7 163.76) rotate(-25.54)"/><rect class="cls-11" x="296.91" y="380.27" width="22.88" height="7.28" transform="translate(-135.39 170.46) rotate(-25.54)"/><path class="cls-5" d="M370.83,354.06a31,31,0,1,0-14.62,41.37A31,31,0,0,0,370.83,354.06ZM320.94,377.9a24.27,24.27,0,1,1,32.36,11.43A24.28,24.28,0,0,1,320.94,377.9Z"/><circle class="cls-15" cx="342.84" cy="367.43" r="24.26" transform="translate(-72.62 84.69) rotate(-12.75)"/><path class="cls-14" d="M342.41,361.73a7.06,7.06,0,1,1,3.33-9.42A7.06,7.06,0,0,1,342.41,361.73Z"/><path class="cls-7" d="M181.06,125.51a11.69,11.69,0,0,1,7.32-8.7l1.88-.74a18.53,18.53,0,0,0,3.76-1.7,3.45,3.45,0,0,0,1.46-2.18q.84-3.6-5.18-5a23.79,23.79,0,0,0-6-.6,27.16,27.16,0,0,0-6.13.79l2.22-9.55a31.24,31.24,0,0,1,13.39.37q7.63,1.77,11.35,6a10.52,10.52,0,0,1,2.41,9.88,8.72,8.72,0,0,1-2.61,4.79,22.2,22.2,0,0,1-5.86,3.25c-1.79.76-3.11,1.36-4,1.79a6.17,6.17,0,0,0-2,1.65,6.43,6.43,0,0,0-1.17,2.61l-.27,1.18-10.92-2.55Zm-2.19,15.16a6.06,6.06,0,0,1,1.9-8.16,5.83,5.83,0,0,1,4.5-.66,5.9,5.9,0,0,1,3.75,2.61,5.85,5.85,0,0,1-1.89,8.13,5.88,5.88,0,0,1-4.51.68A5.72,5.72,0,0,1,178.87,140.67Z"/><path class="cls-7" d="M107.41,208.69a6.94,6.94,0,0,1,.1-6.76l.59-1a11,11,0,0,0,1.09-2.2,2.06,2.06,0,0,0-.14-1.55q-1-2-4.27-.36a14.82,14.82,0,0,0-3,1.95,16.77,16.77,0,0,0-2.53,2.67l-2.56-5.23a18.64,18.64,0,0,1,6.31-4.86,12.45,12.45,0,0,1,7.48-1.49,6.27,6.27,0,0,1,4.82,3.65,5.15,5.15,0,0,1,.59,3.19,12.81,12.81,0,0,1-1.48,3.69q-.81,1.53-1.14,2.31a3.58,3.58,0,0,0-.33,1.53,3.84,3.84,0,0,0,.44,1.63l.32.65-6,2.93Zm4.68,7.8a3.37,3.37,0,0,1-2-1.79,3.33,3.33,0,0,1-.2-2.68,3.4,3.4,0,0,1,1.83-2,3.44,3.44,0,0,1,2.7-.21,3.31,3.31,0,0,1,2,1.77,3.27,3.27,0,0,1,.16,2.68,3.49,3.49,0,0,1-1.82,2A3.46,3.46,0,0,1,112.09,216.49Z"/><path class="cls-11" d="M97.45,165V161h-5A13.39,13.39,0,0,0,90,155l3.51-3.51-2.77-2.78-3.52,3.52a13.24,13.24,0,0,0-6-2.49v-5H77.28v5a13.28,13.28,0,0,0-6,2.49l-3.51-3.52L65,151.52,68.5,155A13.28,13.28,0,0,0,66,161H61V165h5a13.28,13.28,0,0,0,2.49,6L65,174.49l2.78,2.77,3.51-3.51a13.39,13.39,0,0,0,6,2.49v5H81.2v-5a13.35,13.35,0,0,0,6-2.49l3.52,3.51,2.77-2.77L90,171a13.39,13.39,0,0,0,2.49-6ZM79.24,171.3a8.3,8.3,0,1,1,8.3-8.3A8.3,8.3,0,0,1,79.24,171.3Z"/><path class="cls-9" d="M139.71,140.8v-5.49h-7a18.66,18.66,0,0,0-3.48-8.41l4.92-4.91-3.88-3.89L125.39,123a18.62,18.62,0,0,0-8.41-3.48v-7h-5.49v7a18.62,18.62,0,0,0-8.41,3.48l-4.92-4.92L94.28,122l4.92,4.91a18.66,18.66,0,0,0-3.48,8.41h-7v5.49h7a18.62,18.62,0,0,0,3.48,8.41l-4.92,4.92L98.16,158l4.92-4.92a18.51,18.51,0,0,0,8.41,3.48v7H117v-7a18.51,18.51,0,0,0,8.41-3.48l4.92,4.92,3.88-3.88-4.92-4.92a18.62,18.62,0,0,0,3.48-8.41Zm-25.47,8.86a11.61,11.61,0,1,1,11.6-11.6A11.6,11.6,0,0,1,114.24,149.66Z"/></g></svg>