<svg width="36" height="37" viewBox="0 0 36 37" fill="none" xmlns="http://www.w3.org/2000/svg">
<g clip-path="url(#clip0_2539_201)">
<path d="M29.25 20.75C29.2528 21.2087 29.1135 21.657 28.8511 22.0332C28.5886 22.4095 28.2161 22.6951 27.7847 22.8509L20.5312 25.5312L17.8594 32.7903C17.7011 33.2202 17.4149 33.5911 17.0392 33.8532C16.6635 34.1152 16.2165 34.2557 15.7584 34.2557C15.3004 34.2557 14.8533 34.1152 14.4777 33.8532C14.102 33.5911 13.8157 33.2202 13.6575 32.7903L10.9687 25.5312L3.70967 22.8594C3.27982 22.7011 2.90884 22.4149 2.6468 22.0392C2.38476 21.6635 2.24426 21.2165 2.24426 20.7584C2.24426 20.3004 2.38476 19.8534 2.6468 19.4777C2.90884 19.102 3.27982 18.8157 3.70967 18.6575L10.9687 15.9687L13.6406 8.70969C13.7988 8.27984 14.0851 7.90886 14.4608 7.64682C14.8365 7.38478 15.2835 7.24428 15.7415 7.24428C16.1996 7.24428 16.6466 7.38478 17.0223 7.64682C17.398 7.90886 17.6843 8.27984 17.8425 8.70969L20.5312 15.9687L27.7903 18.6406C28.222 18.7978 28.5943 19.0852 28.8558 19.463C29.1173 19.8409 29.255 20.2905 29.25 20.75ZM21.375 7.25H23.625V9.5C23.625 9.79837 23.7435 10.0845 23.9545 10.2955C24.1655 10.5065 24.4516 10.625 24.75 10.625C25.0483 10.625 25.3345 10.5065 25.5455 10.2955C25.7565 10.0845 25.875 9.79837 25.875 9.5V7.25H28.125C28.4233 7.25 28.7095 7.13147 28.9205 6.92049C29.1315 6.70952 29.25 6.42337 29.25 6.125C29.25 5.82663 29.1315 5.54048 28.9205 5.3295C28.7095 5.11853 28.4233 5 28.125 5H25.875V2.75C25.875 2.45163 25.7565 2.16548 25.5455 1.9545C25.3345 1.74353 25.0483 1.625 24.75 1.625C24.4516 1.625 24.1655 1.74353 23.9545 1.9545C23.7435 2.16548 23.625 2.45163 23.625 2.75V5H21.375C21.0766 5 20.7905 5.11853 20.5795 5.3295C20.3685 5.54048 20.25 5.82663 20.25 6.125C20.25 6.42337 20.3685 6.70952 20.5795 6.92049C20.7905 7.13147 21.0766 7.25 21.375 7.25ZM33.75 11.75H32.625V10.625C32.625 10.3266 32.5065 10.0405 32.2955 9.8295C32.0845 9.61853 31.7983 9.5 31.5 9.5C31.2016 9.5 30.9155 9.61853 30.7045 9.8295C30.4935 10.0405 30.375 10.3266 30.375 10.625V11.75H29.25C28.9516 11.75 28.6655 11.8685 28.4545 12.0795C28.2435 12.2905 28.125 12.5766 28.125 12.875C28.125 13.1734 28.2435 13.4595 28.4545 13.6705C28.6655 13.8815 28.9516 14 29.25 14H30.375V15.125C30.375 15.4234 30.4935 15.7095 30.7045 15.9205C30.9155 16.1315 31.2016 16.25 31.5 16.25C31.7983 16.25 32.0845 16.1315 32.2955 15.9205C32.5065 15.7095 32.625 15.4234 32.625 15.125V14H33.75C34.0483 14 34.3345 13.8815 34.5455 13.6705C34.7565 13.4595 34.875 13.1734 34.875 12.875C34.875 12.5766 34.7565 12.2905 34.5455 12.0795C34.3345 11.8685 34.0483 11.75 33.75 11.75Z" fill="#4062BB"/>
</g>
<defs>
<clipPath id="clip0_2539_201">
<rect width="36" height="36" fill="white" transform="translate(0 0.5)"/>
</clipPath>
</defs>
</svg>
