<svg width="91" height="91" viewBox="0 0 91 91" fill="none" xmlns="http://www.w3.org/2000/svg">
<path d="M86.1604 14.436C85.4347 13.2614 83.8942 12.8975 82.7195 13.6232C81.5449 14.3489 81.181 15.8894 81.9067 17.064L86.1604 14.436ZM49.2762 53.3842L50.8727 51.4604C49.8807 50.6372 48.4254 50.7032 47.512 51.6128L49.2762 53.3842ZM45.5285 57.1166L47.2926 58.888L45.5285 57.1166ZM46.1533 62.7147L43.9189 63.8362C43.9777 63.9532 44.0455 64.0654 44.1218 64.1717L46.1533 62.7147ZM46.1533 71.4229L48.1502 72.927C48.1619 72.9114 48.1734 72.8958 48.1848 72.88L46.1533 71.4229ZM33.0371 71.4229L34.8012 69.6516C33.8258 68.6801 32.2485 68.6801 31.273 69.6515L33.0371 71.4229ZM31.7879 72.6669L30.0238 70.8955C29.0954 71.8201 29.0383 73.3046 29.8931 74.2977L31.7879 72.6669ZM32.4125 81.3752L34.4096 82.879C34.4212 82.8635 34.4327 82.8479 34.444 82.8322L32.4125 81.3752ZM21.1701 81.9974L22.9342 80.226C21.9586 79.2543 20.381 79.2545 19.4056 80.2263L21.1701 81.9974ZM16.7981 86.3515L18.5622 88.1229L18.5622 88.1229L16.7981 86.3515ZM8.67869 86.3515L6.91449 88.1228C6.95983 88.168 7.00689 88.2114 7.05556 88.2529L8.67869 86.3515ZM4.93125 82.6191L6.69544 80.8478L6.69537 80.8477L4.93125 82.6191ZM4.93125 73.9109L6.69537 75.6823L6.69538 75.6823L4.93125 73.9109ZM37.4093 41.5658L39.1734 43.3372C40.0009 42.5132 40.1476 41.2261 39.5269 40.2369L37.4093 41.5658ZM70.0853 7.1855C71.3703 7.6907 72.8215 7.05858 73.3267 5.77361C73.8319 4.48864 73.1998 3.03743 71.9148 2.53223L70.0853 7.1855ZM81.9067 17.064C84.1856 20.7527 85.5001 25.0935 85.5001 29.7471H90.5001C90.5001 24.1378 88.9126 18.8908 86.1604 14.436L81.9067 17.064ZM85.5001 29.7471C85.5001 43.1288 74.6049 53.9944 61.143 53.9944V58.9944C77.347 58.9944 90.5001 45.9095 90.5001 29.7471H85.5001ZM61.143 53.9944C59.9406 53.9944 57.8946 53.8525 55.8257 53.4242C53.6831 52.9806 51.8887 52.3036 50.8727 51.4604L47.6796 55.308C49.6616 56.9528 52.4474 57.8308 54.8121 58.3204C57.2506 58.8252 59.639 58.9944 61.143 58.9944V53.9944ZM47.512 51.6128L43.7644 55.3452L47.2926 58.888L51.0403 55.1556L47.512 51.6128ZM43.7644 55.3452C42.9236 56.1825 42.1845 57.0675 41.8035 58.0463C41.3316 59.2584 41.482 60.4053 42.0183 61.3666C42.3951 62.042 43.0347 62.6829 43.2369 62.9061C43.5472 63.2485 43.7587 63.5169 43.9189 63.8362L48.3876 61.5931C47.9233 60.6683 47.3541 60.0035 46.9423 59.5489C46.702 59.2838 46.6057 59.1863 46.4736 59.0337C46.3636 58.9066 46.36 58.8863 46.3848 58.9307C46.4212 58.9959 46.4974 59.1606 46.5165 59.3961C46.5358 59.6341 46.4854 59.8023 46.4629 59.8602C46.4526 59.8867 46.5722 59.6055 47.2926 58.888L43.7644 55.3452ZM46.1533 62.7147C44.1218 64.1717 44.1211 64.1708 44.1204 64.1699C44.1202 64.1696 44.1196 64.1687 44.1192 64.1682C44.1184 64.167 44.1176 64.166 44.1169 64.1649C44.1155 64.1629 44.1142 64.1612 44.1131 64.1596C44.111 64.1566 44.1095 64.1545 44.1087 64.1533C44.1071 64.151 44.1081 64.1525 44.1116 64.1575C44.1184 64.1678 44.1346 64.1923 44.1581 64.2301C44.2053 64.3061 44.2804 64.4331 44.3674 64.6029C44.5441 64.9478 44.7546 65.4391 44.8929 66.0173C45.1607 67.1378 45.1572 68.5222 44.1218 69.9659L48.1848 72.88C50.2722 69.9696 50.2687 66.9998 49.7558 64.8547C49.5037 63.8001 49.1287 62.9308 48.8174 62.3232C48.6605 62.0168 48.5159 61.7696 48.4046 61.5905C48.3488 61.5007 48.3009 61.4274 48.2636 61.3717C48.2449 61.3439 48.2288 61.3203 48.2155 61.3013C48.2089 61.2918 48.203 61.2834 48.1979 61.2761C48.1953 61.2724 48.1929 61.2691 48.1907 61.266C48.1896 61.2645 48.1886 61.263 48.1876 61.2616C48.1871 61.2609 48.1864 61.2599 48.1861 61.2596C48.1854 61.2586 48.1848 61.2576 46.1533 62.7147ZM44.1563 69.9189C43.4901 70.8034 42.2092 71.8479 40.675 72.1389C39.3213 72.3957 37.3155 72.1556 34.8012 69.6516L31.2729 73.1943C34.7544 76.6616 38.3698 77.6654 41.6068 77.0513C44.6633 76.4715 46.9426 74.5304 48.1502 72.927L44.1563 69.9189ZM31.273 69.6515L30.0238 70.8955L33.552 74.4383L34.8012 73.1944L31.273 69.6515ZM31.7879 72.6669C29.8931 74.2977 29.8924 74.2969 29.8917 74.2961C29.8915 74.2959 29.8908 74.2951 29.8904 74.2946C29.8895 74.2936 29.8887 74.2926 29.888 74.2918C29.8865 74.29 29.8852 74.2885 29.8841 74.2873C29.882 74.2847 29.8807 74.2832 29.8802 74.2826C29.8792 74.2814 29.8813 74.284 29.8864 74.2902C29.8964 74.3026 29.9178 74.3294 29.9481 74.3695C30.009 74.4501 30.1038 74.5816 30.2144 74.7558C30.4398 75.1106 30.708 75.6063 30.9006 76.1817C31.2727 77.2937 31.3443 78.575 30.381 79.9181L34.444 82.8322C36.6036 79.8212 36.3629 76.7484 35.642 74.5947C35.2881 73.5374 34.8146 72.6724 34.4349 72.0747C34.243 71.7727 34.0694 71.53 33.9376 71.3555C33.8715 71.268 33.8154 71.197 33.7721 71.1436C33.7504 71.1168 33.7319 71.0944 33.7169 71.0765C33.7094 71.0675 33.7028 71.0596 33.6971 71.0529C33.6942 71.0495 33.6916 71.0464 33.6892 71.0436C33.688 71.0422 33.6869 71.0409 33.6858 71.0396C33.6853 71.039 33.6845 71.0381 33.6842 71.0378C33.6835 71.0369 33.6827 71.0361 31.7879 72.6669ZM30.4154 79.8713C29.8196 80.6625 28.6279 81.5344 27.2579 81.7968C26.0389 82.0303 24.5335 81.8187 22.9342 80.226L19.406 83.7688C22.1787 86.5301 25.3576 87.2516 28.1984 86.7076C30.8881 86.1924 33.1316 84.5762 34.4096 82.879L30.4154 79.8713ZM19.4056 80.2263C19.1977 80.4335 18.0321 81.5942 15.0339 84.5801L18.5622 88.1229C21.5599 85.1375 22.7262 83.976 22.9346 83.7684L19.4056 80.2263ZM15.034 84.5801C14.161 85.4494 13.3164 85.5813 12.5261 85.4645C11.6116 85.3293 10.753 84.8352 10.3018 84.4501L7.05556 88.2529C8.06168 89.1118 9.76378 90.1105 11.7951 90.4107C13.9507 90.7293 16.4371 90.2392 18.5622 88.1229L15.034 84.5801ZM10.4429 84.5802L6.69544 80.8478L3.16705 84.3905L6.91449 88.1228L10.4429 84.5802ZM6.69537 80.8477C5.52427 79.6814 5.41397 78.6795 5.54036 77.9063C5.69237 76.9764 6.24991 76.1259 6.69537 75.6823L3.16712 72.1395C2.15521 73.1472 0.963913 74.9092 0.605851 77.0997C0.222164 79.447 0.840554 82.0735 3.16712 84.3905L6.69537 80.8477ZM6.69538 75.6823L39.1734 43.3372L35.6452 39.7944L3.16711 72.1395L6.69538 75.6823ZM37.4093 41.5658C39.5269 40.2369 39.5273 40.2376 39.5276 40.2382C39.5278 40.2383 39.5281 40.2389 39.5283 40.2393C39.5288 40.24 39.5292 40.2406 39.5295 40.2412C39.5302 40.2423 39.5307 40.2431 39.5311 40.2436C39.5317 40.2447 39.5317 40.2446 39.5309 40.2433C39.5293 40.2408 39.5249 40.2336 39.5179 40.2219C39.5039 40.1986 39.4793 40.1571 39.4457 40.0983C39.3785 39.9806 39.2753 39.794 39.1479 39.5446C38.8928 39.0448 38.5432 38.2977 38.1911 37.3509C37.4837 35.4487 36.7864 32.7946 36.7864 29.7471H31.7864C31.7864 33.5419 32.6506 36.7971 33.5046 39.0937C33.9333 40.2463 34.3644 41.171 34.6947 41.8181C34.8602 42.1421 35.001 42.3978 35.1045 42.5789C35.1563 42.6696 35.1988 42.7417 35.2305 42.7946C35.2464 42.821 35.2595 42.8426 35.2698 42.8593C35.2749 42.8677 35.2794 42.8748 35.283 42.8807C35.2848 42.8836 35.2865 42.8863 35.2879 42.8886C35.2887 42.8898 35.2893 42.8909 35.29 42.8919C35.2903 42.8924 35.2907 42.8931 35.2909 42.8933C35.2913 42.894 35.2917 42.8947 37.4093 41.5658ZM36.7864 29.7471C36.7864 16.3654 47.6816 5.5 61.143 5.5V0.5C44.9394 0.5 31.7864 13.5848 31.7864 29.7471H36.7864ZM61.143 5.5C64.305 5.5 67.3206 6.09854 70.0853 7.1855L71.9148 2.53223C68.5765 1.21973 64.9409 0.5 61.143 0.5V5.5ZM68.0117 29.7475C68.0117 33.5102 64.9463 36.5779 61.143 36.5779V41.5779C67.6884 41.5779 73.0117 36.2909 73.0117 29.7475H68.0117ZM61.143 36.5779C57.34 36.5779 54.2743 33.5101 54.2743 29.7475H49.2743C49.2743 36.291 54.5981 41.5779 61.143 41.5779V36.5779ZM54.2743 29.7475C54.2743 25.9849 57.3401 22.9171 61.143 22.9171V17.9171C54.5981 17.9171 49.2743 23.2041 49.2743 29.7475H54.2743ZM61.143 22.9171C64.9463 22.9171 68.0117 25.9848 68.0117 29.7475H73.0117C73.0117 23.2042 67.6885 17.9171 61.143 17.9171V22.9171Z" fill="#328EFF"/>
</svg>
