<svg width="85" height="85" viewBox="0 0 85 85" fill="none" xmlns="http://www.w3.org/2000/svg">
<path d="M54.5062 18.452L59.4999 28.4395C60.1728 29.8207 61.9791 31.1311 63.502 31.4145L72.5333 32.902C78.3062 33.8582 79.6521 38.0374 75.5083 42.2166L68.4603 49.2645C67.2916 50.4332 66.6187 52.7353 67.0083 54.3999L69.027 63.1124C70.6207 69.9833 66.9375 72.6749 60.8812 69.0624L52.4166 64.0332C50.8937 63.1124 48.3437 63.1124 46.8208 64.0332L38.3561 69.0624C32.2999 72.6395 28.6166 69.9833 30.2104 63.1124L32.2291 54.3999C32.6187 52.7707 31.9458 50.4687 30.777 49.2645L23.7292 42.2166C19.5854 38.0728 20.9312 33.8936 26.7041 32.902L35.7354 31.4145C37.2583 31.1665 39.0645 29.8207 39.7375 28.4395L44.7312 18.452C47.3875 13.0333 51.7792 13.0333 54.5062 18.452Z" stroke="#53D34F" stroke-width="5" stroke-linecap="round" stroke-linejoin="round"/>
<path d="M28.3335 17.7083H7.0835" stroke="#53D34F" stroke-width="5" stroke-linecap="round" stroke-linejoin="round"/>
<path d="M17.7085 67.2917H7.0835" stroke="#53D34F" stroke-width="5" stroke-linecap="round" stroke-linejoin="round"/>
<path d="M10.6252 42.5H7.0835" stroke="#53D34F" stroke-width="5" stroke-linecap="round" stroke-linejoin="round"/>
</svg>
