<svg width="85" height="85" viewBox="0 0 85 85" fill="none" xmlns="http://www.w3.org/2000/svg">
<path d="M59.1457 67.2209H25.854C24.3665 67.2209 22.7019 66.0521 22.2061 64.6355L7.5436 23.623C5.45402 17.7438 7.89777 15.9376 12.9269 19.5501L26.7394 29.4313C29.0415 31.0251 31.6623 30.2105 32.654 27.6251L38.8873 11.0146C40.8707 5.70215 44.1644 5.70215 46.1478 11.0146L52.3811 27.6251C53.3728 30.2105 55.9936 31.0251 58.2603 29.4313L71.2228 20.1876C76.7478 16.2209 79.404 18.2397 77.1373 24.6501L62.829 64.7063C62.2978 66.0521 60.6332 67.2209 59.1457 67.2209Z" stroke="#FFC300" stroke-width="5" stroke-linecap="round" stroke-linejoin="round"/>
<path d="M23.021 77.9167H61.9793" stroke="#FFC300" stroke-width="5" stroke-linecap="round" stroke-linejoin="round"/>
<path d="M33.646 49.5833H51.3543" stroke="#FFC300" stroke-width="5" stroke-linecap="round" stroke-linejoin="round"/>
</svg>
