<svg width="30" height="31" viewBox="0 0 30 31" fill="none" xmlns="http://www.w3.org/2000/svg">
<path d="M10.8398 18.4123C10.8398 20.0248 12.0773 21.3248 13.6148 21.3248H16.7523C18.0898 21.3248 19.1773 20.1873 19.1773 18.7873C19.1773 17.2623 18.5148 16.7248 17.5273 16.3748L12.4898 14.6248C11.5023 14.2748 10.8398 13.7373 10.8398 12.2123C10.8398 10.8123 11.9273 9.6748 13.2648 9.6748H16.4023C17.9398 9.6748 19.1773 10.9748 19.1773 12.5873" stroke="#95E390" stroke-width="1.5" stroke-linecap="round" stroke-linejoin="round"/>
<path d="M15 8V23" stroke="#95E390" stroke-width="1.5" stroke-linecap="round" stroke-linejoin="round"/>
<path d="M15 28C21.9036 28 27.5 22.4036 27.5 15.5C27.5 8.59644 21.9036 3 15 3C8.09644 3 2.5 8.59644 2.5 15.5C2.5 22.4036 8.09644 28 15 28Z" stroke="#95E390" stroke-width="1.5" stroke-linecap="round" stroke-linejoin="round"/>
</svg>
