<svg width="30" height="31" viewBox="0 0 30 31" fill="none" xmlns="http://www.w3.org/2000/svg">
<path d="M15.1499 16.4751C15.0624 16.4626 14.9499 16.4626 14.8499 16.4751C12.6499 16.4001 10.8999 14.6001 10.8999 12.3876C10.8999 10.1251 12.7249 8.2876 14.9999 8.2876C17.2624 8.2876 19.0999 10.1251 19.0999 12.3876C19.0874 14.6001 17.3499 16.4001 15.1499 16.4751Z" stroke="#FB8086" stroke-width="1.5" stroke-linecap="round" stroke-linejoin="round"/>
<path d="M23.4249 24.7252C21.1999 26.7627 18.2499 28.0002 15 28.0002C11.75 28.0002 8.79995 26.7627 6.57495 24.7252C6.69995 23.5502 7.44995 22.4002 8.78745 21.5002C12.2125 19.2252 17.8124 19.2252 21.2124 21.5002C22.5499 22.4002 23.2999 23.5502 23.4249 24.7252Z" stroke="#FB8086" stroke-width="1.5" stroke-linecap="round" stroke-linejoin="round"/>
<path d="M15 28C21.9036 28 27.5 22.4036 27.5 15.5C27.5 8.59644 21.9036 3 15 3C8.09644 3 2.5 8.59644 2.5 15.5C2.5 22.4036 8.09644 28 15 28Z" stroke="#FB8086" stroke-width="1.5" stroke-linecap="round" stroke-linejoin="round"/>
</svg>
