<svg width="30" height="31" viewBox="0 0 30 31" fill="none" xmlns="http://www.w3.org/2000/svg">
<path d="M15 19.25C17.0711 19.25 18.75 17.5711 18.75 15.5C18.75 13.4289 17.0711 11.75 15 11.75C12.9289 11.75 11.25 13.4289 11.25 15.5C11.25 17.5711 12.9289 19.25 15 19.25Z" stroke="#7DB6FF" stroke-width="1.5" stroke-miterlimit="10" stroke-linecap="round" stroke-linejoin="round"/>
<path d="M2.5 16.6V14.4C2.5 13.1 3.5625 12.025 4.875 12.025C7.1375 12.025 8.0625 10.425 6.925 8.46254C6.275 7.33754 6.6625 5.87504 7.8 5.22504L9.9625 3.98754C10.95 3.40004 12.225 3.75004 12.8125 4.73754L12.95 4.97504C14.075 6.93754 15.925 6.93754 17.0625 4.97504L17.2 4.73754C17.7875 3.75004 19.0625 3.40004 20.05 3.98754L22.2125 5.22504C23.35 5.87504 23.7375 7.33754 23.0875 8.46254C21.95 10.425 22.875 12.025 25.1375 12.025C26.4375 12.025 27.5125 13.0875 27.5125 14.4V16.6C27.5125 17.9 26.45 18.975 25.1375 18.975C22.875 18.975 21.95 20.575 23.0875 22.5375C23.7375 23.675 23.35 25.125 22.2125 25.775L20.05 27.0125C19.0625 27.6 17.7875 27.25 17.2 26.2625L17.0625 26.025C15.9375 24.0625 14.0875 24.0625 12.95 26.025L12.8125 26.2625C12.225 27.25 10.95 27.6 9.9625 27.0125L7.8 25.775C6.6625 25.125 6.275 23.6625 6.925 22.5375C8.0625 20.575 7.1375 18.975 4.875 18.975C3.5625 18.975 2.5 17.9 2.5 16.6Z" stroke="#7DB6FF" stroke-width="1.5" stroke-miterlimit="10" stroke-linecap="round" stroke-linejoin="round"/>
</svg>
