<svg width="21" height="24" viewBox="0 0 21 24" fill="none" xmlns="http://www.w3.org/2000/svg">
<mask id="mask0_2535_12054" style="mask-type:alpha" maskUnits="userSpaceOnUse" x="0" y="0" width="21" height="24">
<path fill-rule="evenodd" clip-rule="evenodd" d="M0 6.42857C0 2.87817 2.87817 0 6.42857 0H13.2857C17.5462 0 21 3.4538 21 7.71429V12.4286C21 16.689 17.5462 20.1429 13.2857 20.1429H11.5714C11.098 20.1429 10.7143 19.7591 10.7143 19.2857V16.7143C10.7143 16.2409 11.098 15.8571 11.5714 15.8571C13.465 15.8571 15 14.3221 15 12.4286V10.7143C15 8.82073 13.465 7.28571 11.5714 7.28571H10.7143V7.23939H9.85714C7.96359 7.23939 6.42857 8.7744 6.42857 10.668V23.3571C6.42857 23.7122 6.14074 24 5.78571 24C2.59035 24 0 21.4096 0 18.2143V6.42857Z" fill="#9BB0E0"/>
</mask>
<g mask="url(#mask0_2535_12054)">
<path d="M13.7143 0H7.71429C3.4538 0 0 3.4538 0 7.71429V16.2857C0 20.5462 3.4538 24 7.71429 24H13.7143C17.9748 24 21.4286 20.5462 21.4286 16.2857V7.71429C21.4286 3.4538 17.9748 0 13.7143 0Z" fill="#262424"/>
</g>
</svg>
