<svg width="145" height="56" viewBox="0 0 145 56" fill="none" xmlns="http://www.w3.org/2000/svg">
<mask id="mask0_2185_2500" style="mask-type:alpha" maskUnits="userSpaceOnUse" x="0" y="0" width="49" height="56">
<path fill-rule="evenodd" clip-rule="evenodd" d="M0 15C0 6.71573 6.71573 0 15 0H31C40.9411 0 49 8.05887 49 18V29C49 38.9411 40.9411 47 31 47H27C25.8954 47 25 46.1046 25 45V39C25 37.8954 25.8954 37 27 37C31.4183 37 35 33.4183 35 29V25C35 20.5817 31.4183 17 27 17H25V16.8919H23C18.5817 16.8919 15 20.4736 15 24.8919V54.5C15 55.3284 14.3284 56 13.5 56C6.04416 56 0 49.9558 0 42.5V15Z" fill="#9BB0E0"/>
</mask>
<g mask="url(#mask0_2185_2500)">
<rect width="50" height="56" rx="18" fill="white"/>
</g>
<path d="M61.256 36.5V19.7H68.168C69.656 19.7 70.928 19.94 71.984 20.42C73.056 20.9 73.88 21.588 74.456 22.484C75.032 23.38 75.32 24.444 75.32 25.676C75.32 26.908 75.032 27.972 74.456 28.868C73.88 29.764 73.056 30.452 71.984 30.932C70.928 31.412 69.656 31.652 68.168 31.652H62.984L64.376 30.188V36.5H61.256ZM64.376 30.524L62.984 29.012H68.024C69.4 29.012 70.432 28.724 71.12 28.148C71.824 27.556 72.176 26.732 72.176 25.676C72.176 24.604 71.824 23.78 71.12 23.204C70.432 22.628 69.4 22.34 68.024 22.34H62.984L64.376 20.804V30.524ZM78.3821 36.5V18.692H81.3821V36.5H78.3821ZM93.2156 36.5V33.908L93.0476 33.356V28.82C93.0476 27.94 92.7836 27.26 92.2556 26.78C91.7276 26.284 90.9276 26.036 89.8556 26.036C89.1356 26.036 88.4236 26.148 87.7196 26.372C87.0316 26.596 86.4476 26.908 85.9676 27.308L84.7916 25.124C85.4796 24.596 86.2956 24.204 87.2396 23.948C88.1996 23.676 89.1916 23.54 90.2156 23.54C92.0716 23.54 93.5036 23.988 94.5116 24.884C95.5356 25.764 96.0476 27.132 96.0476 28.988V36.5H93.2156ZM89.1836 36.668C88.2236 36.668 87.3836 36.508 86.6636 36.188C85.9436 35.852 85.3836 35.396 84.9836 34.82C84.5996 34.228 84.4076 33.564 84.4076 32.828C84.4076 32.108 84.5756 31.46 84.9116 30.884C85.2636 30.308 85.8316 29.852 86.6156 29.516C87.3996 29.18 88.4396 29.012 89.7356 29.012H93.4556V31.004H89.9516C88.9276 31.004 88.2396 31.172 87.8876 31.508C87.5356 31.828 87.3596 32.228 87.3596 32.708C87.3596 33.252 87.5756 33.684 88.0076 34.004C88.4396 34.324 89.0396 34.484 89.8076 34.484C90.5436 34.484 91.1996 34.316 91.7756 33.98C92.3676 33.644 92.7916 33.148 93.0476 32.492L93.5516 34.292C93.2636 35.044 92.7436 35.628 91.9916 36.044C91.2556 36.46 90.3196 36.668 89.1836 36.668ZM107.17 23.54C108.194 23.54 109.106 23.74 109.906 24.14C110.722 24.54 111.362 25.156 111.826 25.988C112.29 26.804 112.522 27.86 112.522 29.156V36.5H109.522V29.54C109.522 28.404 109.25 27.556 108.706 26.996C108.178 26.436 107.434 26.156 106.474 26.156C105.77 26.156 105.146 26.3 104.602 26.588C104.058 26.876 103.634 27.308 103.33 27.884C103.042 28.444 102.898 29.156 102.898 30.02V36.5H99.8977V23.684H102.754V27.14L102.25 26.084C102.698 25.268 103.346 24.644 104.194 24.212C105.058 23.764 106.05 23.54 107.17 23.54ZM116.327 36.5V23.684H119.327V36.5H116.327ZM117.839 21.572C117.279 21.572 116.815 21.396 116.447 21.044C116.095 20.692 115.919 20.268 115.919 19.772C115.919 19.26 116.095 18.836 116.447 18.5C116.815 18.148 117.279 17.972 117.839 17.972C118.399 17.972 118.855 18.14 119.207 18.476C119.575 18.796 119.759 19.204 119.759 19.7C119.759 20.228 119.583 20.676 119.231 21.044C118.879 21.396 118.415 21.572 117.839 21.572ZM123.673 36.5V22.964C123.673 21.62 124.065 20.548 124.849 19.748C125.649 18.932 126.785 18.524 128.257 18.524C128.785 18.524 129.281 18.58 129.745 18.692C130.225 18.804 130.625 18.98 130.945 19.22L130.129 21.476C129.905 21.3 129.649 21.172 129.361 21.092C129.073 20.996 128.777 20.948 128.473 20.948C127.849 20.948 127.377 21.124 127.057 21.476C126.737 21.812 126.577 22.324 126.577 23.012V24.452L126.673 25.796V36.5H123.673ZM121.561 26.18V23.78H130.105V26.18H121.561ZM133.415 41.324C132.791 41.324 132.167 41.22 131.543 41.012C130.919 40.804 130.399 40.516 129.983 40.148L131.183 37.94C131.487 38.212 131.831 38.428 132.215 38.588C132.599 38.748 132.991 38.828 133.391 38.828C133.935 38.828 134.375 38.692 134.711 38.42C135.047 38.148 135.359 37.692 135.647 37.052L136.391 35.372L136.631 35.012L141.479 23.684H144.359L138.359 37.532C137.959 38.492 137.511 39.252 137.015 39.812C136.535 40.372 135.991 40.764 135.383 40.988C134.791 41.212 134.135 41.324 133.415 41.324ZM136.055 36.956L130.271 23.684H133.391L138.095 34.748L136.055 36.956Z" fill="white"/>
</svg>
