<svg width="50" height="50" viewBox="0 0 50 50" fill="none" xmlns="http://www.w3.org/2000/svg">
<path d="M18.75 20.8333C21.0512 20.8333 22.9167 18.9679 22.9167 16.6667C22.9167 14.3655 21.0512 12.5 18.75 12.5C16.4488 12.5 14.5833 14.3655 14.5833 16.6667C14.5833 18.9679 16.4488 20.8333 18.75 20.8333Z" stroke="#FFC300" stroke-width="2.5" stroke-linecap="round" stroke-linejoin="round"/>
<path d="M27.0834 4.16602H18.75C8.33335 4.16602 4.16669 8.33268 4.16669 18.7493V31.2493C4.16669 41.666 8.33335 45.8327 18.75 45.8327H31.25C41.6667 45.8327 45.8334 41.666 45.8334 31.2493V20.8327" stroke="#FFC300" stroke-width="2.5" stroke-linecap="round" stroke-linejoin="round"/>
<path d="M37.5 16.666V4.16602L41.6667 8.33268" stroke="#FFC300" stroke-width="2.5" stroke-linecap="round" stroke-linejoin="round"/>
<path d="M37.5 4.16602L33.3333 8.33268" stroke="#FFC300" stroke-width="2.5" stroke-linecap="round" stroke-linejoin="round"/>
<path d="M5.5625 39.4785L15.8333 32.5827C17.4792 31.4785 19.8542 31.6035 21.3333 32.8743L22.0208 33.4785C23.6458 34.8743 26.2708 34.8743 27.8958 33.4785L36.5625 26.041C38.1875 24.6452 40.8125 24.6452 42.4375 26.041L45.8333 28.9577" stroke="#FFC300" stroke-width="2.5" stroke-linecap="round" stroke-linejoin="round"/>
</svg>
