<svg width="50" height="50" viewBox="0 0 50 50" fill="none" xmlns="http://www.w3.org/2000/svg">
<path d="M30.0834 39.6881L33.25 42.8548L39.5834 36.5215" stroke="#328EFF" stroke-width="2.5" stroke-linecap="round" stroke-linejoin="round"/>
<path d="M25.3333 22.6452C25.125 22.6244 24.875 22.6244 24.6458 22.6452C19.6875 22.4785 15.75 18.416 15.75 13.416C15.7291 8.31185 19.875 4.16602 24.9791 4.16602C30.0833 4.16602 34.2291 8.31185 34.2291 13.416C34.2291 18.416 30.2708 22.4785 25.3333 22.6452Z" stroke="#328EFF" stroke-width="2.5" stroke-linecap="round" stroke-linejoin="round"/>
<path d="M24.9791 45.4382C21.1875 45.4382 17.4166 44.4798 14.5416 42.5632C9.49996 39.1882 9.49996 33.6882 14.5416 30.334C20.2708 26.5007 29.6666 26.5007 35.3958 30.334" stroke="#328EFF" stroke-width="2.5" stroke-linecap="round" stroke-linejoin="round"/>
</svg>
