<svg width="1440" height="822" viewBox="0 0 1440 822" fill="none" xmlns="http://www.w3.org/2000/svg">
<g clip-path="url(#clip0_2422_1050)">
<g opacity="0.2">
<path d="M259.151 257.047L168.021 307.841L259.151 358.635L350.281 307.841L259.151 257.047Z" stroke="#4062BB"/>
<path d="M351.202 205.74L260.072 256.534L351.202 307.328L442.332 256.534L351.202 205.74Z" stroke="#4062BB"/>
<path d="M443.253 154.433L352.123 205.227L443.253 256.021L534.383 205.227L443.253 154.433Z" stroke="#4062BB"/>
<path d="M627.354 51.82L536.224 102.614L627.354 153.408L718.484 102.614L627.354 51.82Z" stroke="#4062BB"/>
<path d="M167.102 410.968L75.9717 461.762L167.102 512.556L258.232 461.762L167.102 410.968Z" stroke="#4062BB"/>
<path d="M259.151 359.662L168.021 410.456L259.151 461.249L350.281 410.456L259.151 359.662Z" stroke="#4062BB"/>
<path d="M351.202 308.355L260.072 359.149L351.202 409.943L442.332 359.149L351.202 308.355Z" stroke="#4062BB"/>
<path d="M443.253 257.048L352.123 307.842L443.253 358.636L534.383 307.842L443.253 257.048Z" stroke="#4062BB"/>
<path d="M535.304 205.74L444.174 256.534L535.304 307.328L626.434 256.534L535.304 205.74Z" stroke="#4062BB"/>
<path d="M627.354 154.433L536.224 205.227L627.354 256.021L718.484 205.227L627.354 154.433Z" stroke="#4062BB"/>
<path d="M719.404 103.127L628.274 153.92L719.404 204.714L810.534 153.92L719.404 103.127Z" stroke="#4062BB"/>
<path d="M259.151 462.275L168.021 513.069L259.151 563.863L350.281 513.069L259.151 462.275Z" stroke="#4062BB"/>
<path d="M351.202 410.967L260.072 461.761L351.202 512.555L442.332 461.761L351.202 410.967Z" stroke="#4062BB"/>
<path d="M443.253 359.662L352.123 410.456L443.253 461.249L534.383 410.456L443.253 359.662Z" stroke="#4062BB"/>
<path d="M535.304 308.354L444.174 359.147L535.304 409.941L626.434 359.147L535.304 308.354Z" stroke="#4062BB"/>
<path d="M627.354 257.047L536.224 307.841L627.354 358.635L718.484 307.841L627.354 257.047Z" stroke="#4062BB"/>
<path d="M719.404 205.74L628.274 256.534L719.404 307.328L810.534 256.534L719.404 205.74Z" stroke="#4062BB"/>
<path d="M811.454 154.433L720.324 205.227L811.454 256.021L902.584 205.227L811.454 154.433Z" stroke="#4062BB"/>
<path d="M903.506 103.127L812.376 153.92L903.506 204.714L994.636 153.92L903.506 103.127Z" stroke="#4062BB"/>
<path d="M351.202 513.582L260.072 564.375L351.202 615.169L442.332 564.375L351.202 513.582Z" stroke="#4062BB"/>
<path d="M443.253 462.275L352.123 513.069L443.253 563.863L534.383 513.069L443.253 462.275Z" stroke="#4062BB"/>
<path d="M535.304 410.968L444.174 461.762L535.304 512.556L626.434 461.762L535.304 410.968Z" stroke="#4062BB"/>
<path d="M627.354 359.662L536.224 410.456L627.354 461.249L718.484 410.456L627.354 359.662Z" stroke="#4062BB"/>
<path d="M719.404 308.354L628.274 359.147L719.404 409.941L810.534 359.147L719.404 308.354Z" stroke="#4062BB"/>
<path d="M811.454 257.047L720.324 307.841L811.454 358.635L902.584 307.841L811.454 257.047Z" stroke="#4062BB"/>
<path d="M903.506 205.74L812.376 256.534L903.506 307.328L994.636 256.534L903.506 205.74Z" stroke="#4062BB"/>
<path d="M995.556 154.433L904.426 205.227L995.556 256.021L1086.69 205.227L995.556 154.433Z" stroke="#4062BB"/>
<path d="M443.253 564.888L352.123 615.682L443.253 666.476L534.383 615.682L443.253 564.888Z" stroke="#4062BB"/>
<path d="M535.304 513.582L444.174 564.375L535.304 615.169L626.434 564.375L535.304 513.582Z" stroke="#4062BB"/>
<path d="M627.354 462.275L536.224 513.069L627.354 563.863L718.484 513.069L627.354 462.275Z" stroke="#4062BB"/>
<path d="M719.404 410.968L628.274 461.762L719.404 512.556L810.534 461.762L719.404 410.968Z" stroke="#4062BB"/>
<path d="M811.454 359.662L720.324 410.456L811.454 461.249L902.584 410.456L811.454 359.662Z" stroke="#4062BB"/>
<path d="M903.506 308.355L812.376 359.149L903.506 409.943L994.636 359.149L903.506 308.355Z" stroke="#4062BB"/>
<path d="M995.556 257.047L904.426 307.841L995.556 358.635L1086.69 307.841L995.556 257.047Z" stroke="#4062BB"/>
<path d="M535.304 616.195L444.174 666.989L535.304 717.783L626.434 666.989L535.304 616.195Z" stroke="#4062BB"/>
<path d="M627.354 564.888L536.224 615.682L627.354 666.476L718.484 615.682L627.354 564.888Z" stroke="#4062BB"/>
<path d="M719.404 513.582L628.274 564.375L719.404 615.169L810.534 564.375L719.404 513.582Z" stroke="#4062BB"/>
<path d="M811.454 462.275L720.324 513.069L811.454 563.863L902.584 513.069L811.454 462.275Z" stroke="#4062BB"/>
<path d="M903.506 410.968L812.376 461.762L903.506 512.556L994.636 461.762L903.506 410.968Z" stroke="#4062BB"/>
<path d="M995.556 359.662L904.426 410.456L995.556 461.249L1086.69 410.456L995.556 359.662Z" stroke="#4062BB"/>
<path d="M1087.61 308.355L996.478 359.149L1087.61 409.943L1178.74 359.149L1087.61 308.355Z" stroke="#4062BB"/>
<path d="M719.404 616.195L628.274 666.989L719.404 717.783L810.534 666.989L719.404 616.195Z" stroke="#4062BB"/>
<path d="M811.454 564.888L720.324 615.682L811.454 666.476L902.584 615.682L811.454 564.888Z" stroke="#4062BB"/>
<path d="M903.506 513.582L812.376 564.375L903.506 615.169L994.636 564.375L903.506 513.582Z" stroke="#4062BB"/>
<path d="M995.556 462.275L904.426 513.069L995.556 563.863L1086.69 513.069L995.556 462.275Z" stroke="#4062BB"/>
<path d="M1087.61 410.967L996.478 461.761L1087.61 512.555L1178.74 461.761L1087.61 410.967Z" stroke="#4062BB"/>
<path d="M1179.66 359.662L1088.53 410.456L1179.66 461.249L1270.79 410.456L1179.66 359.662Z" stroke="#4062BB"/>
<path d="M1271.71 308.354L1180.58 359.147L1271.71 409.941L1362.84 359.147L1271.71 308.354Z" stroke="#4062BB"/>
<path d="M811.454 667.502L720.324 718.296L811.454 769.09L902.584 718.296L811.454 667.502Z" stroke="#4062BB"/>
<path d="M995.556 564.888L904.426 615.682L995.556 666.476L1086.69 615.682L995.556 564.888Z" stroke="#4062BB"/>
<path d="M1087.61 513.582L996.478 564.375L1087.61 615.169L1178.74 564.375L1087.61 513.582Z" stroke="#4062BB"/>
<path d="M1179.66 462.275L1088.53 513.069L1179.66 563.863L1270.79 513.069L1179.66 462.275Z" stroke="#4062BB"/>
</g>
<g filter="url(#filter0_f_2422_1050)">
<rect x="1283" y="181" width="158" height="460" fill="white" fill-opacity="0.8"/>
</g>
<g filter="url(#filter1_f_2422_1050)">
<rect x="-1" y="181" width="156" height="460" fill="white" fill-opacity="0.8"/>
</g>
<g clip-path="url(#clip1_2422_1050)">
<path d="M365 161L300 199.684L365 237.579L429.207 199.684L365 161Z" fill="#7591D2"/>
<path d="M429.207 199.684L365 237.579L300 199.684V213.895L365 251L429.207 213.895V199.684Z" fill="#4062BB"/>
<mask id="mask0_2422_1050" style="mask-type:luminance" maskUnits="userSpaceOnUse" x="331" y="177" width="66" height="40">
<path d="M363.072 177.826L331.161 198.465L364.439 216.837L396.35 196.198L363.072 177.826Z" fill="white"/>
</mask>
<g mask="url(#mask0_2422_1050)">
<path d="M367.744 194.752C368.567 195.206 369.137 195.801 369.383 196.462C369.629 197.123 369.539 197.821 369.125 198.466C368.711 199.111 367.991 199.675 367.057 200.087C366.122 200.499 365.016 200.74 363.876 200.779C362.736 200.819 361.615 200.656 360.654 200.31C359.694 199.964 358.936 199.451 358.478 198.836C358.02 198.221 357.881 197.532 358.08 196.855C358.279 196.179 358.806 195.545 359.595 195.035C360.653 194.351 362.106 193.936 363.634 193.883C365.162 193.83 366.641 194.142 367.744 194.752ZM370.479 185.502L382.958 192.391C384.886 193.458 386.001 194.956 386.057 196.556C386.113 198.156 385.106 199.727 383.258 200.925L371.291 208.665C369.438 209.86 366.896 210.584 364.223 210.677C361.55 210.77 358.963 210.225 357.031 209.161L344.552 202.271C342.624 201.204 341.509 199.707 341.453 198.107C341.397 196.507 342.404 194.936 344.253 193.738L356.219 185.998C358.072 184.802 360.614 184.078 363.287 183.985C365.96 183.892 368.547 184.438 370.479 185.502ZM369.738 193.462C368.504 192.78 366.947 192.341 365.263 192.2C363.58 192.059 361.846 192.222 360.28 192.668C358.715 193.114 357.388 193.824 356.468 194.708C355.548 195.591 355.076 196.609 355.112 197.632C355.148 198.655 355.69 199.637 356.67 200.455C357.649 201.272 359.022 201.888 360.615 202.225C362.208 202.561 363.95 202.603 365.619 202.345C367.289 202.088 368.811 201.541 369.995 200.776C371.579 199.749 372.442 198.402 372.394 197.031C372.346 195.66 371.391 194.376 369.738 193.462ZM364.93 187.221C364.622 187.05 364.232 186.941 363.811 186.905C363.391 186.87 362.957 186.911 362.566 187.022C362.174 187.134 361.843 187.311 361.613 187.532C361.383 187.753 361.265 188.008 361.274 188.263C361.283 188.519 361.418 188.765 361.663 188.969C361.908 189.173 362.251 189.327 362.65 189.412C363.048 189.496 363.483 189.506 363.9 189.442C364.318 189.377 364.699 189.241 364.994 189.049C365.391 188.793 365.607 188.456 365.595 188.113C365.583 187.77 365.344 187.449 364.93 187.221Z" fill="white"/>
</g>
</g>
<path d="M364.588 565L300 603.684L364.588 641.579L428.389 603.684L364.588 565Z" fill="#7591D2"/>
<path d="M428.389 603.684L364.588 641.579L300 603.684V617.895L364.588 655L428.389 617.895V603.684Z" fill="#4062BB"/>
<mask id="mask1_2422_1050" style="mask-type:luminance" maskUnits="userSpaceOnUse" x="331" y="581" width="65" height="40">
<path d="M362.872 581.826L331.164 602.465L364.231 620.837L395.94 600.198L362.872 581.826Z" fill="white"/>
</mask>
<g mask="url(#mask1_2422_1050)">
<path d="M376.433 592.947C379.712 594.774 381.726 597.286 382.094 600.01C382.462 602.734 381.16 605.483 378.432 607.738C378.37 607.788 378.293 607.83 378.204 607.861C378.115 607.892 378.017 607.911 377.916 607.918C377.815 607.925 377.714 607.919 377.618 607.9C377.523 607.881 377.437 607.851 377.364 607.81L367.643 602.409L370.615 600.474C370.752 600.386 370.857 600.282 370.926 600.17C370.994 600.057 371.024 599.938 371.014 599.821C371.003 599.703 370.953 599.588 370.865 599.484C370.778 599.38 370.655 599.289 370.504 599.217C370.217 599.083 369.852 599.023 369.483 599.046C369.115 599.07 368.77 599.177 368.518 599.346L365.576 601.261L362.476 599.538C361.928 599.234 361.611 598.806 361.595 598.348C361.579 597.891 361.865 597.442 362.391 597.1L364.373 595.81C364.509 595.722 364.615 595.618 364.683 595.506C364.752 595.393 364.782 595.275 364.771 595.157C364.761 595.039 364.71 594.925 364.623 594.821C364.535 594.717 364.412 594.626 364.262 594.553C363.974 594.419 363.608 594.358 363.239 594.383C362.87 594.407 362.524 594.514 362.273 594.684L360.324 595.952C359.273 596.636 358.7 597.534 358.732 598.449C358.764 599.363 359.398 600.219 360.494 600.828L363.594 602.55L360.622 604.485C360.485 604.574 360.38 604.677 360.311 604.789C360.243 604.902 360.213 605.021 360.223 605.139C360.233 605.257 360.284 605.371 360.372 605.475C360.459 605.579 360.582 605.67 360.732 605.742C361.021 605.876 361.386 605.937 361.755 605.913C362.124 605.888 362.47 605.781 362.722 605.612L365.661 603.699L375.385 609.101C375.458 609.141 375.516 609.191 375.554 609.246C375.593 609.302 375.611 609.362 375.608 609.423C375.605 609.484 375.58 609.544 375.536 609.6C375.492 609.655 375.429 609.705 375.351 609.746C371.735 611.608 367.141 612.609 362.478 612.55C357.816 612.492 353.425 611.378 350.174 609.43C343.446 605.393 343.193 598.716 349.616 594.209C351.279 593.042 353.302 592.081 355.566 591.383C357.83 590.685 360.287 590.264 362.791 590.146C365.294 590.029 367.793 590.216 370.137 590.697C372.481 591.178 374.622 591.943 376.433 592.947Z" fill="white"/>
</g>
<path d="M1082.82 469L1018 507.684L1082.82 545.579L1146.85 507.684L1082.82 469Z" fill="#7591D2"/>
<path d="M1146.85 507.684L1082.82 545.579L1018 507.684V521.895L1082.82 559L1146.85 521.895V507.684Z" fill="#4062BB"/>
<mask id="mask2_2422_1050" style="mask-type:luminance" maskUnits="userSpaceOnUse" x="1049" y="486" width="66" height="40">
<path d="M1081.58 486.69L1049.76 507.329L1082.95 525.7L1114.77 505.061L1081.58 486.69Z" fill="white"/>
</mask>
<g mask="url(#mask2_2422_1050)">
<path d="M1090.37 493.096L1090.53 497.653C1098.85 503.165 1098.57 511.831 1089.78 517.528C1087.98 518.699 1086.19 519.499 1084.47 519.906C1083.09 520.234 1082.2 520.193 1081.96 520.173C1081.75 520.155 1081.55 520.108 1081.37 520.036C1081.2 519.964 1081.05 519.868 1080.95 519.756C1080.85 519.644 1080.79 519.518 1080.78 519.388C1080.77 519.259 1080.81 519.128 1080.9 519.007C1080.92 518.979 1082.7 516.385 1082.32 513.899C1080.37 514.081 1078.4 514.09 1076.47 513.926C1072.54 513.604 1066.67 512.428 1061 508.654C1060.82 508.534 1060.71 508.384 1060.67 508.222C1060.63 508.061 1060.66 507.894 1060.77 507.741C1060.89 507.588 1061.07 507.456 1061.29 507.36C1061.52 507.265 1061.79 507.209 1062.06 507.2C1062.15 507.197 1070.49 506.893 1076.87 504.409L1076.08 503.972C1075.25 503.515 1074.59 502.959 1074.13 502.338C1073.68 501.716 1073.43 501.041 1073.42 500.353C1073.4 499.678 1073.6 499.003 1074.02 498.366C1074.43 497.73 1075.05 497.145 1075.84 496.647C1076.9 495.976 1078.21 495.474 1079.66 495.19C1081.11 494.906 1082.64 494.849 1084.11 495.026L1087.89 492.573C1088.09 492.445 1088.34 492.354 1088.62 492.311C1088.9 492.268 1089.19 492.274 1089.45 492.331C1089.72 492.387 1089.95 492.489 1090.11 492.626C1090.27 492.762 1090.36 492.926 1090.37 493.096Z" fill="white"/>
</g>
</g>
<defs>
<filter id="filter0_f_2422_1050" x="1163" y="61" width="398" height="700" filterUnits="userSpaceOnUse" color-interpolation-filters="sRGB">
<feFlood flood-opacity="0" result="BackgroundImageFix"/>
<feBlend mode="normal" in="SourceGraphic" in2="BackgroundImageFix" result="shape"/>
<feGaussianBlur stdDeviation="60" result="effect1_foregroundBlur_2422_1050"/>
</filter>
<filter id="filter1_f_2422_1050" x="-121" y="61" width="396" height="700" filterUnits="userSpaceOnUse" color-interpolation-filters="sRGB">
<feFlood flood-opacity="0" result="BackgroundImageFix"/>
<feBlend mode="normal" in="SourceGraphic" in2="BackgroundImageFix" result="shape"/>
<feGaussianBlur stdDeviation="60" result="effect1_foregroundBlur_2422_1050"/>
</filter>
<clipPath id="clip0_2422_1050">
<rect width="1473" height="822" fill="white" transform="translate(-17)"/>
</clipPath>
<clipPath id="clip1_2422_1050">
<rect width="130" height="90" fill="white" transform="translate(300 161)"/>
</clipPath>
</defs>
</svg>
